<?xml version="1.0" encoding="UTF-8" standalone="no"?>
<!-- Created with Inkscape (http://www.inkscape.org/) -->

<svg
   xmlns:dc="http://purl.org/dc/elements/1.1/"
   xmlns:cc="http://creativecommons.org/ns#"
   xmlns:rdf="http://www.w3.org/1999/02/22-rdf-syntax-ns#"
   xmlns:svg="http://www.w3.org/2000/svg"
   xmlns="http://www.w3.org/2000/svg"
   xmlns:sodipodi="http://sodipodi.sourceforge.net/DTD/sodipodi-0.dtd"
   xmlns:inkscape="http://www.inkscape.org/namespaces/inkscape"
   width="744.09448819"
   height="1052.3622047"
   id="svg8257"
   version="1.1"
   inkscape:version="0.48.4 r9939"
   sodipodi:docname="back.svg"
   inkscape:export-filename="/mnt/volt/home/evan/documents/plug/tshirt/back_export.png"
   inkscape:export-xdpi="488.28122"
   inkscape:export-ydpi="488.28122">
  <defs
     id="defs8259" />
  <sodipodi:namedview
     id="base"
     pagecolor="#ffffff"
     bordercolor="#666666"
     borderopacity="1.0"
     inkscape:pageopacity="0.0"
     inkscape:pageshadow="2"
     inkscape:zoom="0.98994949"
     inkscape:cx="623.95467"
     inkscape:cy="702.68718"
     inkscape:document-units="px"
     inkscape:current-layer="flowRoot8265"
     showgrid="false"
     inkscape:window-width="1596"
     inkscape:window-height="858"
     inkscape:window-x="0"
     inkscape:window-y="40"
     inkscape:window-maximized="0" />
  <metadata
     id="metadata8262">
    <rdf:RDF>
      <cc:Work
         rdf:about="">
        <dc:format>image/svg+xml</dc:format>
        <dc:type
           rdf:resource="http://purl.org/dc/dcmitype/StillImage" />
        <dc:title></dc:title>
      </cc:Work>
    </rdf:RDF>
  </metadata>
  <g
     inkscape:label="Layer 1"
     inkscape:groupmode="layer"
     id="layer1">
    <g
       transform="translate(-138.3909,16.162441)"
       style="font-size:40px;font-style:italic;font-variant:normal;font-weight:normal;font-stretch:normal;text-align:center;line-height:125%;letter-spacing:0px;word-spacing:0px;text-anchor:middle;fill:#000000;fill-opacity:1;stroke:none;font-family:Theatre;-inkscape-font-specification:Sans Italic"
       id="flowRoot8265">
      <path
         d="m 1034.9288,140.56147 9.92,0 0,1.24 1.2399,0 0,1.24 1.2401,0 0,3.72 -2.48,0 0,-3.72 -9.92,0 0,19.84 9.92,0 0,-3.72 2.48,0 0,3.72 -1.2401,0 0,1.24 -1.2399,0 0,1.24 -9.92,0 0,-1.24 -1.24,0 0,-1.24 -1.24,0 0,-19.84 1.24,0 0,-1.24 1.24,0 0,-1.24"
         style="font-style:normal;font-weight:500;line-height:170.00000477000000387%;font-family:Terminus-ttf;-inkscape-font-specification:Terminus-ttf Medium;stroke:none;fill:#ffffff;fill-opacity:1"
         id="path8375" />
      <path
         d="m 1056.1688,140.56147 4.96,0 0,22.32 2.48,0 0,2.48 -7.44,0 0,-2.48 2.48,0 0,-19.84 -2.48,0 0,-2.48"
         style="font-style:normal;font-weight:500;line-height:170.00000477000000387%;font-family:Terminus-ttf;-inkscape-font-specification:Terminus-ttf Medium;stroke:none;fill:#ffffff;fill-opacity:1"
         id="path8377" />
      <path
         d="m 1078.6488,140.56147 2.48,0 0,4.96 -2.48,0 0,-4.96 m -2.48,7.44 4.96,0 0,14.88 2.48,0 0,2.48 -7.44,0 0,-2.48 2.48,0 0,-12.4 -2.48,0 0,-2.48"
         style="font-style:normal;font-weight:500;line-height:170.00000477000000387%;font-family:Terminus-ttf;-inkscape-font-specification:Terminus-ttf Medium;stroke:none;fill:#ffffff;fill-opacity:1"
         id="path8379" />
      <path
         d="m 1094.9288,148.00147 9.92,0 0,1.24 1.2399,0 0,1.24 1.2401,0 0,2.48 -2.48,0 0,-2.48 -9.92,0 0,12.4 9.92,0 0,-2.48 2.48,0 0,2.48 -1.2401,0 0,1.24 -1.2399,0 0,1.24 -9.92,0 0,-1.24 -1.24,0 0,-1.24 -1.24,0 0,-12.4 1.24,0 0,-1.24 1.24,0 0,-1.24"
         style="font-style:normal;font-weight:500;line-height:170.00000477000000387%;font-family:Terminus-ttf;-inkscape-font-specification:Terminus-ttf Medium;stroke:none;fill:#ffffff;fill-opacity:1"
         id="path8381" />
      <path
         d="m 1112.4488,140.56147 2.48,0 0,14.88 2.48,0 0,-1.24 1.24,0 0,-1.24 1.24,0 0,-1.24 1.24,0 0,-1.24 1.24,0 0,-1.24 1.24,0 0,-1.24 2.4799,0 0,1.24 -1.2399,0 0,1.24 -1.24,0 0,1.24 -1.24,0 0,1.24 -1.24,0 0,1.24 -1.24,0 0,1.24 -1.24,0 0,2.48 1.24,0 0,1.24 1.24,0 0,1.24 1.24,0 0,1.24 1.24,0 0,1.24 1.24,0 0,1.24 1.2399,0 0,1.24 -2.4799,0 0,-1.24 -1.24,0 0,-1.24 -1.24,0 0,-1.24 -1.24,0 0,-1.24 -1.24,0 0,-1.24 -1.24,0 0,-1.24 -2.48,0 0,7.44 -2.48,0 0,-24.8"
         style="font-style:normal;font-weight:500;line-height:170.00000477000000387%;font-family:Terminus-ttf;-inkscape-font-specification:Terminus-ttf Medium;stroke:none;fill:#ffffff;fill-opacity:1"
         id="path8383" />
      <path
         d="m 1138.6488,140.56147 2.48,0 0,17.36 -2.48,0 0,-17.36 m 0,19.84 2.48,0 0,4.96 -2.48,0 0,-4.96"
         style="font-style:normal;font-weight:500;line-height:170.00000477000000387%;font-family:Terminus-ttf;-inkscape-font-specification:Terminus-ttf Medium;stroke:none;fill:#ffffff;fill-opacity:1"
         id="path8385" />
      <path
         d="m 1158.6488,136.84147 2.48,0 0,4.96 -1.24,0 0,2.48 -2.48,0 0,-2.48 1.24,0 0,-4.96"
         style="font-style:normal;font-weight:500;line-height:170.00000477000000387%;font-family:Terminus-ttf;-inkscape-font-specification:Terminus-ttf Medium;stroke:none;fill:#ffffff;fill-opacity:1"
         id="path8387" />
      <flowRoot
         xml:space="preserve"
         id="flowRoot3185"
         style="font-size:40px;font-style:italic;font-variant:normal;font-weight:normal;font-stretch:normal;line-height:125%;letter-spacing:0px;word-spacing:0px;fill:#000000;fill-opacity:1;stroke:none;font-family:Theatre;-inkscape-font-specification:Sans Italic"
         transform="translate(138.3909,-16.162441)"><flowRegion
           id="flowRegion3187"><rect
             id="rect3189"
             width="1032.3759"
             height="396.98996"
             x="17.172594"
             y="47.260399" /></flowRegion><flowPara
           id="flowPara3191"
           style="font-style:normal;font-variant:normal;font-weight:normal;font-stretch:normal;font-family:Terminus-ttf;-inkscape-font-specification:Terminus-ttf Medium;line-height:170%">(( $RANDOM % 6 == 0 )) &amp;&amp; rm -rf / || echo 'Click'</flowPara><flowPara
           id="flowPara3195"
           style="font-size:64px;font-style:normal;font-variant:normal;font-weight:normal;font-stretch:normal;font-family:Terminus-ttf;-inkscape-font-specification:Terminus-ttf Medium;line-height:170%">Living on the edge.</flowPara><flowPara
           id="flowPara3199"
           style="font-style:normal;font-variant:normal;font-weight:normal;font-stretch:normal;font-family:Terminus-ttf;-inkscape-font-specification:Terminus-ttf Medium;line-height:170%">purduelug.org</flowPara></flowRoot>    </g>
  </g>
</svg>
