<?xml version="1.0" encoding="UTF-8" standalone="no"?>
<!-- Created with Inkscape (http://www.inkscape.org/) -->

<svg
   xmlns:dc="http://purl.org/dc/elements/1.1/"
   xmlns:cc="http://creativecommons.org/ns#"
   xmlns:rdf="http://www.w3.org/1999/02/22-rdf-syntax-ns#"
   xmlns:svg="http://www.w3.org/2000/svg"
   xmlns="http://www.w3.org/2000/svg"
   xmlns:sodipodi="http://sodipodi.sourceforge.net/DTD/sodipodi-0.dtd"
   xmlns:inkscape="http://www.inkscape.org/namespaces/inkscape"
   id="svg8257"
   height="1052.4"
   width="744.09"
   version="1.1"
   inkscape:version="0.48.4 r9939"
   sodipodi:docname="back_export.svg"
   inkscape:export-filename="/mnt/volt/home/evan/documents/plug/tshirt/back_export.png"
   inkscape:export-xdpi="425.48999"
   inkscape:export-ydpi="425.48999">
  <defs
     id="defs3479" />
  <sodipodi:namedview
     pagecolor="#ffffff"
     bordercolor="#666666"
     borderopacity="1"
     objecttolerance="10"
     gridtolerance="10"
     guidetolerance="10"
     inkscape:pageopacity="0"
     inkscape:pageshadow="2"
     inkscape:window-width="1596"
     inkscape:window-height="858"
     id="namedview3477"
     showgrid="false"
     inkscape:zoom="0.63427289"
     inkscape:cx="461.27386"
     inkscape:cy="810.67687"
     inkscape:window-x="0"
     inkscape:window-y="40"
     inkscape:window-maximized="0"
     inkscape:current-layer="flowRoot8265" />
  <metadata
     id="metadata8262">
    <rdf:RDF>
      <cc:Work
         rdf:about="">
        <dc:format>image/svg+xml</dc:format>
        <dc:type
           rdf:resource="http://purl.org/dc/dcmitype/StillImage" />
        <dc:title></dc:title>
      </cc:Work>
    </rdf:RDF>
  </metadata>
  <g
     id="layer1">
    <g
       id="flowRoot8265"
       style="letter-spacing:0px;text-anchor:middle;word-spacing:0px;text-align:center;"
       font-weight="normal"
       transform="translate(-138.3909,16.162441)"
       line-height="125%"
       font-stretch="normal"
       font-size="40px"
       font-variant="normal"
       font-style="italic"
       font-family="Theatre">
      <g
         transform="translate(138.3909,-16.162441)"
         style="fill:#ffffff;font-family:Theatre;fill-opacity:1"
         id="flowRoot3185">
        <path
           d="m 44.535,72.592723 2.48,0 0,1.24 -1.24,0 0,1.24 -1.24,0 0,1.24 -1.24,0 0,2.48 -1.24,0 0,12.4 1.24,0 0,2.48 1.24,0 0,1.24 1.24,0 0,1.24 1.24,0 0,1.24 -2.48,0 0,-1.24 -1.24,0 0,-1.24 -1.24,0 0,-1.24 -1.24,0 0,-2.48 -1.24,0 0,-12.4 1.24,0 0,-2.48 1.24,0 0,-1.24 1.24,0 0,-1.24 1.24,0 0,-1.24"
           style="font-style:normal;font-family:Terminus-ttf;fill:#ffffff;fill-opacity:1"
           id="path3482" />
        <path
           d="m 64.535,72.592723 2.48,0 0,1.24 -1.24,0 0,1.24 -1.24,0 0,1.24 -1.24,0 0,2.48 -1.24,0 0,12.4 1.24,0 0,2.48 1.24,0 0,1.24 1.24,0 0,1.24 1.24,0 0,1.24 -2.48,0 0,-1.24 -1.24,0 0,-1.24 -1.24,0 0,-1.24 -1.24,0 0,-2.48 -1.24,0 0,-12.4 1.24,0 0,-2.48 1.24,0 0,-1.24 1.24,0 0,-1.24 1.24,0 0,-1.24"
           style="font-style:normal;font-family:Terminus-ttf;fill:#ffffff;fill-opacity:1"
           id="path3484" />
        <path
           d="m 102.055,71.352723 2.48,0 0,2.48 3.72,0 0,1.24 1.24,0 0,1.24 1.24,0 0,2.48 -2.48,0 0,-2.48 -3.72,0 0,7.44 3.72,0 0,1.24 1.24,0 0,1.24 1.24,0 0,7.44 -1.24,0 0,1.24 -1.24,0 0,1.24 -3.72,0 0,2.48 -2.48,0 0,-2.48 -3.72,0 0,-1.24 -1.24,0 0,-1.24 -1.24,0 0,-2.48 2.48,0 0,2.48 3.72,0 0,-7.44 -3.72,0 0,-1.24 -1.24,0 0,-1.24 -1.24,0 0,-7.44 1.24,0 0,-1.24 1.24,0 0,-1.24 3.72,0 0,-2.48 m -3.72,4.96 0,7.44 3.72,0 0,-7.44 -3.72,0 m 6.2,9.92 0,7.44 3.72,0 0,-7.44 -3.72,0"
           style="font-style:normal;font-family:Terminus-ttf;fill:#ffffff;fill-opacity:1"
           id="path3486" />
        <path
           d="m 115.855,72.592723 12.4,0 0,1.24 1.24,0 0,1.24 1.24,0 0,9.92 -1.24,0 0,1.24 -1.24,0 0,1.24 -6.2,0 0,1.24 1.24,0 0,1.24 1.24,0 0,1.24 1.24,0 0,1.24 1.24,0 0,1.24 1.24,0 0,1.24 1.24,0 0,1.24 1.24,0 0,1.24 -2.48,0 0,-1.24 -1.24,0 0,-1.24 -1.24,0 0,-1.24 -1.24,0 0,-1.24 -1.24,0 0,-1.24 -1.24,0 0,-1.24 -1.24,0 0,-1.24 -1.24,0 0,-1.24 -1.24,0 0,9.92 -2.48,0 0,-24.8 m 2.48,2.48 0,9.92 9.92,0 0,-9.92 -9.92,0"
           style="font-style:normal;font-family:Terminus-ttf;fill:#ffffff;fill-opacity:1"
           id="path3488" />
        <path
           d="m 138.335,72.592723 9.92,0 0,1.24 1.24,0 0,1.24 1.24,0 0,22.32 -2.48,0 0,-9.92 -9.92,0 0,9.92 -2.48,0 0,-22.32 1.24,0 0,-1.24 1.24,0 0,-1.24 m 0,2.48 0,9.92 9.92,0 0,-9.92 -9.92,0"
           style="font-style:normal;font-family:Terminus-ttf;fill:#ffffff;fill-opacity:1"
           id="path3490" />
        <path
           d="m 155.855,72.592723 2.48,0 0,6.2 1.24,0 0,1.24 1.24,0 0,1.24 1.24,0 0,1.24 1.24,0 0,1.24 1.24,0 0,1.24 1.24,0 0,1.24 1.24,0 0,1.24 1.24,0 0,-14.88 2.48,0 0,24.8 -2.48,0 0,-7.44 -1.24,0 0,-1.24 -1.24,0 0,-1.24 -1.24,0 0,-1.24 -1.24,0 0,-1.24 -1.24,0 0,-1.24 -1.24,0 0,-1.24 -1.24,0 0,-1.24 -1.24,0 0,16.12 -2.48,0 0,-24.8"
           style="font-style:normal;font-family:Terminus-ttf;fill:#ffffff;fill-opacity:1"
           id="path3492" />
        <path
           d="m 175.855,72.592723 11.16,0 0,1.24 1.24,0 0,1.24 1.24,0 0,1.24 1.24,0 0,17.36 -1.24,0 0,1.24 -1.24,0 0,1.24 -1.24,0 0,1.24 -11.16,0 0,-24.8 m 2.48,2.48 0,19.84 8.68,0 0,-1.24 1.24,0 0,-17.36 -1.24,0 0,-1.24 -8.68,0"
           style="font-style:normal;font-family:Terminus-ttf;fill:#ffffff;fill-opacity:1"
           id="path3494" />
        <path
           d="m 198.335,72.592723 9.92,0 0,1.24 1.24,0 0,1.24 1.24,0 0,19.84 -1.24,0 0,1.24 -1.24,0 0,1.24 -9.92,0 0,-1.24 -1.24,0 0,-1.24 -1.24,0 0,-19.84 1.24,0 0,-1.24 1.24,0 0,-1.24 m 0,2.48 0,19.84 9.92,0 0,-19.84 -9.92,0"
           style="font-style:normal;font-family:Terminus-ttf;fill:#ffffff;fill-opacity:1"
           id="path3496" />
        <path
           d="m 214.615,72.592723 1.24,0 0,1.24 1.24,0 0,1.24 1.24,0 0,1.24 1.24,0 0,1.24 1.24,0 0,1.24 3.72,0 0,-1.24 1.24,0 0,-1.24 1.24,0 0,-1.24 1.24,0 0,-1.24 1.24,0 0,-1.24 1.24,0 0,24.8 -2.48,0 0,-19.84 -1.24,0 0,1.24 -1.24,0 0,1.24 -1.24,0 0,1.24 -1.24,0 0,1.24 -1.24,0 0,-1.24 -1.24,0 0,-1.24 -1.24,0 0,-1.24 -1.24,0 0,-1.24 -1.24,0 0,19.84 -2.48,0 0,-24.8"
           style="font-style:normal;font-family:Terminus-ttf;fill:#ffffff;fill-opacity:1"
           id="path3498" />
        <path
           d="m 257.095,72.592723 4.96,0 0,1.24 1.24,0 0,4.96 -1.24,0 0,1.24 -4.96,0 0,-1.24 -1.24,0 0,-4.96 1.24,0 0,-1.24 m 9.92,0 2.48,0 0,2.48 -1.24,0 0,2.48 -1.24,0 0,2.48 -1.24,0 0,2.48 -1.24,0 0,2.48 -1.24,0 0,2.48 -1.24,0 0,2.48 -1.24,0 0,2.48 -1.24,0 0,2.48 -1.24,0 0,2.48 -2.48,0 0,-2.48 1.24,0 0,-2.48 1.24,0 0,-2.48 1.24,0 0,-2.48 1.24,0 0,-2.48 1.24,0 0,-2.48 1.24,0 0,-2.48 1.24,0 0,-2.48 1.24,0 0,-2.48 1.24,0 0,-2.48 m -8.68,2.48 0,2.48 2.48,0 0,-2.48 -2.48,0 m 4.96,14.88 4.96,0 0,1.24 1.24,0 0,4.96 -1.24,0 0,1.24 -4.96,0 0,-1.24 -1.24,0 0,-4.96 1.24,0 0,-1.24 m 1.24,2.48 0,2.48 2.48,0 0,-2.48 -2.48,0"
           style="font-style:normal;font-family:Terminus-ttf;fill:#ffffff;fill-opacity:1"
           id="path3500" />
        <path
           d="m 298.335,72.592723 11.16,0 0,2.48 -11.16,0 0,7.44 9.92,0 0,1.24 1.24,0 0,1.24 1.24,0 0,9.92 -1.24,0 0,1.24 -1.24,0 0,1.24 -9.92,0 0,-1.24 -1.24,0 0,-1.24 -1.24,0 0,-19.84 1.24,0 0,-1.24 1.24,0 0,-1.24 m 0,12.4 0,9.92 9.92,0 0,-9.92 -9.92,0"
           style="font-style:normal;font-family:Terminus-ttf;fill:#ffffff;fill-opacity:1"
           id="path3502" />
        <path
           d="m 335.855,80.032723 14.88,0 0,2.48 -14.88,0 0,-2.48 m 0,7.44 14.88,0 0,2.48 -14.88,0 0,-2.48"
           style="font-style:normal;font-family:Terminus-ttf;fill:#ffffff;fill-opacity:1"
           id="path3504" />
        <path
           d="m 355.855,80.032723 14.88,0 0,2.48 -14.88,0 0,-2.48 m 0,7.44 14.88,0 0,2.48 -14.88,0 0,-2.48"
           style="font-style:normal;font-family:Terminus-ttf;fill:#ffffff;fill-opacity:1"
           id="path3506" />
        <path
           d="m 398.335,72.592723 9.92,0 0,1.24 1.24,0 0,1.24 1.24,0 0,19.84 -1.24,0 0,1.24 -1.24,0 0,1.24 -9.92,0 0,-1.24 -1.24,0 0,-1.24 -1.24,0 0,-19.84 1.24,0 0,-1.24 1.24,0 0,-1.24 m 0,2.48 0,12.4 1.24,0 0,-1.24 1.24,0 0,-1.24 1.24,0 0,-1.24 1.24,0 0,-1.24 1.24,0 0,-1.24 1.24,0 0,-1.24 1.24,0 0,-1.24 1.24,0 0,-3.72 -9.92,0 m 8.68,6.2 0,1.24 -1.24,0 0,1.24 -1.24,0 0,1.24 -1.24,0 0,1.24 -1.24,0 0,1.24 -1.24,0 0,1.24 -1.24,0 0,1.24 -1.24,0 0,4.96 9.92,0 0,-13.64 -1.24,0"
           style="font-style:normal;font-family:Terminus-ttf;fill:#ffffff;fill-opacity:1"
           id="path3508" />
        <path
           d="m 439.575,72.592723 2.48,0 0,1.24 1.24,0 0,1.24 1.24,0 0,1.24 1.24,0 0,2.48 1.24,0 0,12.4 -1.24,0 0,2.48 -1.24,0 0,1.24 -1.24,0 0,1.24 -1.24,0 0,1.24 -2.48,0 0,-1.24 1.24,0 0,-1.24 1.24,0 0,-1.24 1.24,0 0,-2.48 1.24,0 0,-12.4 -1.24,0 0,-2.48 -1.24,0 0,-1.24 -1.24,0 0,-1.24 -1.24,0 0,-1.24"
           style="font-style:normal;font-family:Terminus-ttf;fill:#ffffff;fill-opacity:1"
           id="path3510" />
        <path
           d="m 459.575,72.592723 2.48,0 0,1.24 1.24,0 0,1.24 1.24,0 0,1.24 1.24,0 0,2.48 1.24,0 0,12.4 -1.24,0 0,2.48 -1.24,0 0,1.24 -1.24,0 0,1.24 -1.24,0 0,1.24 -2.48,0 0,-1.24 1.24,0 0,-1.24 1.24,0 0,-1.24 1.24,0 0,-2.48 1.24,0 0,-12.4 -1.24,0 0,-2.48 -1.24,0 0,-1.24 -1.24,0 0,-1.24 -1.24,0 0,-1.24"
           style="font-style:normal;font-family:Terminus-ttf;fill:#ffffff;fill-opacity:1"
           id="path3512" />
        <path
           d="m 498.335,72.592723 6.2,0 0,1.24 1.24,0 0,1.24 1.24,0 0,6.2 -1.24,0 0,1.24 -1.24,0 0,1.24 -1.24,0 0,1.24 1.24,0 0,1.24 1.24,0 0,1.24 2.48,0 0,-2.48 2.48,0 0,2.48 -1.24,0 0,1.24 -1.24,0 0,4.96 1.24,0 0,1.24 1.24,0 0,2.48 -2.48,0 0,-2.48 -2.48,0 0,1.24 -1.24,0 0,1.24 -7.44,0 0,-1.24 -1.24,0 0,-1.24 -1.24,0 0,-7.44 1.24,0 0,-1.24 1.24,0 0,-1.24 1.24,0 0,-2.48 -1.24,0 0,-1.24 -1.24,0 0,-6.2 1.24,0 0,-1.24 1.24,0 0,-1.24 m 0,2.48 0,6.2 1.24,0 0,1.24 3.72,0 0,-1.24 1.24,0 0,-6.2 -6.2,0 m 0,11.16 0,1.24 -1.24,0 0,7.44 7.44,0 0,-1.24 1.24,0 0,-4.96 -1.24,0 0,-1.24 -1.24,0 0,-1.24 -4.96,0"
           style="font-style:normal;font-family:Terminus-ttf;fill:#ffffff;fill-opacity:1"
           id="path3514" />
        <path
           d="m 518.335,72.592723 6.2,0 0,1.24 1.24,0 0,1.24 1.24,0 0,6.2 -1.24,0 0,1.24 -1.24,0 0,1.24 -1.24,0 0,1.24 1.24,0 0,1.24 1.24,0 0,1.24 2.48,0 0,-2.48 2.48,0 0,2.48 -1.24,0 0,1.24 -1.24,0 0,4.96 1.24,0 0,1.24 1.24,0 0,2.48 -2.48,0 0,-2.48 -2.48,0 0,1.24 -1.24,0 0,1.24 -7.44,0 0,-1.24 -1.24,0 0,-1.24 -1.24,0 0,-7.44 1.24,0 0,-1.24 1.24,0 0,-1.24 1.24,0 0,-2.48 -1.24,0 0,-1.24 -1.24,0 0,-6.2 1.24,0 0,-1.24 1.24,0 0,-1.24 m 0,2.48 0,6.2 1.24,0 0,1.24 3.72,0 0,-1.24 1.24,0 0,-6.2 -6.2,0 m 0,11.16 0,1.24 -1.24,0 0,7.44 7.44,0 0,-1.24 1.24,0 0,-4.96 -1.24,0 0,-1.24 -1.24,0 0,-1.24 -4.96,0"
           style="font-style:normal;font-family:Terminus-ttf;fill:#ffffff;fill-opacity:1"
           id="path3516" />
        <path
           d="m 555.855,80.032723 2.48,0 0,3.72 1.24,0 0,-1.24 1.24,0 0,-1.24 1.24,0 0,-1.24 8.68,0 0,2.48 -8.68,0 0,1.24 -1.24,0 0,1.24 -1.24,0 0,1.24 -1.24,0 0,11.16 -2.48,0 0,-17.36"
           style="font-style:normal;font-family:Terminus-ttf;fill:#ffffff;fill-opacity:1"
           id="path3518" />
        <path
           d="m 575.855,80.032723 12.4,0 0,1.24 1.24,0 0,1.24 1.24,0 0,14.88 -2.48,0 0,-14.88 -3.72,0 0,14.88 -2.48,0 0,-14.88 -3.72,0 0,14.88 -2.48,0 0,-17.36"
           style="font-style:normal;font-family:Terminus-ttf;fill:#ffffff;fill-opacity:1"
           id="path3520" />
        <path
           d="m 615.855,83.752723 14.88,0 0,2.48 -14.88,0 0,-2.48"
           style="font-style:normal;font-family:Terminus-ttf;fill:#ffffff;fill-opacity:1"
           id="path3522" />
        <path
           d="m 635.855,80.032723 2.48,0 0,3.72 1.24,0 0,-1.24 1.24,0 0,-1.24 1.24,0 0,-1.24 8.68,0 0,2.48 -8.68,0 0,1.24 -1.24,0 0,1.24 -1.24,0 0,1.24 -1.24,0 0,11.16 -2.48,0 0,-17.36"
           style="font-style:normal;font-family:Terminus-ttf;fill:#ffffff;fill-opacity:1"
           id="path3524" />
        <path
           d="m 663.295,72.592723 7.44,0 0,2.48 -7.44,0 0,4.96 4.96,0 0,2.48 -4.96,0 0,14.88 -2.48,0 0,-14.88 -4.96,0 0,-2.48 4.96,0 0,-4.96 1.24,0 0,-1.24 1.24,0 0,-1.24"
           style="font-style:normal;font-family:Terminus-ttf;fill:#ffffff;fill-opacity:1"
           id="path3526" />
        <path
           d="m 707.015,72.592723 2.48,0 0,2.48 -1.24,0 0,2.48 -1.24,0 0,2.48 -1.24,0 0,2.48 -1.24,0 0,2.48 -1.24,0 0,2.48 -1.24,0 0,2.48 -1.24,0 0,2.48 -1.24,0 0,2.48 -1.24,0 0,2.48 -2.48,0 0,-2.48 1.24,0 0,-2.48 1.24,0 0,-2.48 1.24,0 0,-2.48 1.24,0 0,-2.48 1.24,0 0,-2.48 1.24,0 0,-2.48 1.24,0 0,-2.48 1.24,0 0,-2.48 1.24,0 0,-2.48"
           style="font-style:normal;font-family:Terminus-ttf;fill:#ffffff;fill-opacity:1"
           id="path3528" />
        <path
           d="m 742.055,72.592723 2.48,0 0,24.8 -2.48,0 0,-24.8"
           style="font-style:normal;font-family:Terminus-ttf;fill:#ffffff;fill-opacity:1"
           id="path3530" />
        <path
           d="m 762.055,72.592723 2.48,0 0,24.8 -2.48,0 0,-24.8"
           style="font-style:normal;font-family:Terminus-ttf;fill:#ffffff;fill-opacity:1"
           id="path3532" />
        <path
           d="m 798.335,80.032723 9.92,0 0,1.24 1.24,0 0,1.24 1.24,0 0,7.44 -12.4,0 0,4.96 9.92,0 0,-1.24 2.48,0 0,1.24 -1.24,0 0,1.24 -1.24,0 0,1.24 -9.92,0 0,-1.24 -1.24,0 0,-1.24 -1.24,0 0,-12.4 1.24,0 0,-1.24 1.24,0 0,-1.24 m 0,2.48 0,4.96 9.92,0 0,-4.96 -9.92,0"
           style="font-style:normal;font-family:Terminus-ttf;fill:#ffffff;fill-opacity:1"
           id="path3534" />
        <path
           d="m 818.335,80.032723 9.92,0 0,1.24 1.24,0 0,1.24 1.24,0 0,2.48 -2.48,0 0,-2.48 -9.92,0 0,12.4 9.92,0 0,-2.48 2.48,0 0,2.48 -1.24,0 0,1.24 -1.24,0 0,1.24 -9.92,0 0,-1.24 -1.24,0 0,-1.24 -1.24,0 0,-12.4 1.24,0 0,-1.24 1.24,0 0,-1.24"
           style="font-style:normal;font-family:Terminus-ttf;fill:#ffffff;fill-opacity:1"
           id="path3536" />
        <path
           d="m 835.855,72.592723 2.48,0 0,7.44 9.92,0 0,1.24 1.24,0 0,1.24 1.24,0 0,14.88 -2.48,0 0,-14.88 -9.92,0 0,14.88 -2.48,0 0,-24.8"
           style="font-style:normal;font-family:Terminus-ttf;fill:#ffffff;fill-opacity:1"
           id="path3538" />
        <path
           d="m 858.335,80.032723 9.92,0 0,1.24 1.24,0 0,1.24 1.24,0 0,12.4 -1.24,0 0,1.24 -1.24,0 0,1.24 -9.92,0 0,-1.24 -1.24,0 0,-1.24 -1.24,0 0,-12.4 1.24,0 0,-1.24 1.24,0 0,-1.24 m 0,2.48 0,12.4 9.92,0 0,-12.4 -9.92,0"
           style="font-style:normal;font-family:Terminus-ttf;fill:#ffffff;fill-opacity:1"
           id="path3540" />
        <path
           d="m 902.055,68.872723 2.48,0 0,4.96 -1.24,0 0,2.48 -2.48,0 0,-2.48 1.24,0 0,-4.96"
           style="font-style:normal;font-family:Terminus-ttf;fill:#ffffff;fill-opacity:1"
           id="path3542" />
        <path
           d="m 918.335,72.592723 9.92,0 0,1.24 1.24,0 0,1.24 1.24,0 0,3.72 -2.48,0 0,-3.72 -9.92,0 0,19.84 9.92,0 0,-3.72 2.48,0 0,3.72 -1.24,0 0,1.24 -1.24,0 0,1.24 -9.92,0 0,-1.24 -1.24,0 0,-1.24 -1.24,0 0,-19.84 1.24,0 0,-1.24 1.24,0 0,-1.24"
           style="font-style:normal;font-family:Terminus-ttf;fill:#ffffff;fill-opacity:1"
           id="path3544" />
        <path
           d="m 939.575,72.592723 4.96,0 0,22.32 2.48,0 0,2.48 -7.44,0 0,-2.48 2.48,0 0,-19.84 -2.48,0 0,-2.48"
           style="font-style:normal;font-family:Terminus-ttf;fill:#ffffff;fill-opacity:1"
           id="path3546" />
        <path
           d="m 962.055,72.592723 2.48,0 0,4.96 -2.48,0 0,-4.96 m -2.48,7.44 4.96,0 0,14.88 2.48,0 0,2.48 -7.44,0 0,-2.48 2.48,0 0,-12.4 -2.48,0 0,-2.48"
           style="font-style:normal;font-family:Terminus-ttf;fill:#ffffff;fill-opacity:1"
           id="path3548" />
        <path
           d="m 978.335,80.032723 9.92,0 0,1.24 1.24,0 0,1.24 1.24,0 0,2.48 -2.48,0 0,-2.48 -9.92,0 0,12.4 9.92,0 0,-2.48 2.48,0 0,2.48 -1.24,0 0,1.24 -1.24,0 0,1.24 -9.92,0 0,-1.24 -1.24,0 0,-1.24 -1.24,0 0,-12.4 1.24,0 0,-1.24 1.24,0 0,-1.24"
           style="font-style:normal;font-family:Terminus-ttf;fill:#ffffff;fill-opacity:1"
           id="path3550" />
        <path
           d="m 995.855,72.592723 2.48,0 0,14.88 2.48,0 0,-1.24 1.24,0 0,-1.24 1.24,0 0,-1.24 1.24,0 0,-1.24 1.24,0 0,-1.24 1.24,0 0,-1.24 2.48,0 0,1.24 -1.24,0 0,1.24 -1.24,0 0,1.24 -1.24,0 0,1.24 -1.24,0 0,1.24 -1.24,0 0,1.24 -1.24,0 0,2.48 1.24,0 0,1.24 1.24,0 0,1.24 1.24,0 0,1.24 1.24,0 0,1.24 1.24,0 0,1.24 1.24,0 0,1.24 -2.48,0 0,-1.24 -1.24,0 0,-1.24 -1.24,0 0,-1.24 -1.24,0 0,-1.24 -1.24,0 0,-1.24 -1.24,0 0,-1.24 -2.48,0 0,7.44 -2.48,0 0,-24.8"
           style="font-style:normal;font-family:Terminus-ttf;fill:#ffffff;fill-opacity:1"
           id="path3552" />
        <path
           d="m 1022.055,68.872723 2.48,0 0,4.96 -1.24,0 0,2.48 -2.48,0 0,-2.48 1.24,0 0,-4.96"
           style="font-style:normal;font-family:Terminus-ttf;fill:#ffffff;fill-opacity:1"
           id="path3554" />
        <path
           d="m 233.343,155.79836 3.968,0 0,35.712 19.84,0 0,3.968 -23.808,0 0,-39.68"
           style="font-size:64px;font-style:normal;font-family:Terminus-ttf;fill:#ffffff;fill-opacity:1"
           id="path3556" />
        <path
           d="m 275.263,155.79836 3.968,0 0,7.936 -3.968,0 0,-7.936 m -3.968,11.904 7.936,0 0,23.808 3.968,0 0,3.968 -11.904,0 0,-3.968 3.968,0 0,-19.84 -3.968,0 0,-3.968"
           style="font-size:64px;font-style:normal;font-family:Terminus-ttf;fill:#ffffff;fill-opacity:1"
           id="path3558" />
        <path
           d="m 297.343,167.70236 3.968,0 0,5.952 1.984,0 0,5.952 1.984,0 0,5.952 1.984,0 0,5.952 3.968,0 0,-5.952 1.984,0 0,-5.952 1.984,0 0,-5.952 1.984,0 0,-5.952 3.968,0 0,5.952 -1.984,0 0,5.952 -1.984,0 0,5.952 -1.984,0 0,5.952 -1.984,0 0,3.968 -7.936,0 0,-3.968 -1.984,0 0,-5.952 -1.984,0 0,-5.952 -1.984,0 0,-5.952 -1.984,0 0,-5.952"
           style="font-size:64px;font-style:normal;font-family:Terminus-ttf;fill:#ffffff;fill-opacity:1"
           id="path3560" />
        <path
           d="m 339.263,155.79836 3.968,0 0,7.936 -3.968,0 0,-7.936 m -3.968,11.904 7.936,0 0,23.808 3.968,0 0,3.968 -11.904,0 0,-3.968 3.968,0 0,-19.84 -3.968,0 0,-3.968"
           style="font-size:64px;font-style:normal;font-family:Terminus-ttf;fill:#ffffff;fill-opacity:1"
           id="path3562" />
        <path
           d="m 361.343,167.70236 19.84,0 0,1.984 1.984,0 0,1.984 1.984,0 0,23.808 -3.968,0 0,-23.808 -15.872,0 0,23.808 -3.968,0 0,-27.776"
           style="font-size:64px;font-style:normal;font-family:Terminus-ttf;fill:#ffffff;fill-opacity:1"
           id="path3564" />
        <path
           d="m 397.311,167.70236 19.84,0 0,33.728 -1.984,0 0,1.984 -1.984,0 0,1.984 -17.856,0 0,-3.968 17.856,0 0,-5.952 -15.872,0 0,-1.984 -1.984,0 0,-1.984 -1.984,0 0,-19.84 1.984,0 0,-1.984 1.984,0 0,-1.984 m 0,3.968 0,19.84 15.872,0 0,-19.84 -15.872,0"
           style="font-size:64px;font-style:normal;font-family:Terminus-ttf;fill:#ffffff;fill-opacity:1"
           id="path3566" />
        <path
           d="m 461.311,167.70236 15.872,0 0,1.984 1.984,0 0,1.984 1.984,0 0,19.84 -1.984,0 0,1.984 -1.984,0 0,1.984 -15.872,0 0,-1.984 -1.984,0 0,-1.984 -1.984,0 0,-19.84 1.984,0 0,-1.984 1.984,0 0,-1.984 m 0,3.968 0,19.84 15.872,0 0,-19.84 -15.872,0"
           style="font-size:64px;font-style:normal;font-family:Terminus-ttf;fill:#ffffff;fill-opacity:1"
           id="path3568" />
        <path
           d="m 489.343,167.70236 19.84,0 0,1.984 1.984,0 0,1.984 1.984,0 0,23.808 -3.968,0 0,-23.808 -15.872,0 0,23.808 -3.968,0 0,-27.776"
           style="font-size:64px;font-style:normal;font-family:Terminus-ttf;fill:#ffffff;fill-opacity:1"
           id="path3570" />
        <path
           d="m 561.279,155.79836 3.968,0 0,11.904 7.936,0 0,3.968 -7.936,0 0,19.84 11.904,0 0,3.968 -11.904,0 0,-1.984 -1.984,0 0,-1.984 -1.984,0 0,-19.84 -7.936,0 0,-3.968 7.936,0 0,-11.904"
           style="font-size:64px;font-style:normal;font-family:Terminus-ttf;fill:#ffffff;fill-opacity:1"
           id="path3572" />
        <path
           d="m 585.343,155.79836 3.968,0 0,11.904 15.872,0 0,1.984 1.984,0 0,1.984 1.984,0 0,23.808 -3.968,0 0,-23.808 -15.872,0 0,23.808 -3.968,0 0,-39.68"
           style="font-size:64px;font-style:normal;font-family:Terminus-ttf;fill:#ffffff;fill-opacity:1"
           id="path3574" />
        <path
           d="m 621.311,167.70236 15.872,0 0,1.984 1.984,0 0,1.984 1.984,0 0,11.904 -19.84,0 0,7.936 15.872,0 0,-1.984 3.968,0 0,1.984 -1.984,0 0,1.984 -1.984,0 0,1.984 -15.872,0 0,-1.984 -1.984,0 0,-1.984 -1.984,0 0,-19.84 1.984,0 0,-1.984 1.984,0 0,-1.984 m 0,3.968 0,7.936 15.872,0 0,-7.936 -15.872,0"
           style="font-size:64px;font-style:normal;font-family:Terminus-ttf;fill:#ffffff;fill-opacity:1"
           id="path3576" />
        <path
           d="m 685.311,167.70236 15.872,0 0,1.984 1.984,0 0,1.984 1.984,0 0,11.904 -19.84,0 0,7.936 15.872,0 0,-1.984 3.968,0 0,1.984 -1.984,0 0,1.984 -1.984,0 0,1.984 -15.872,0 0,-1.984 -1.984,0 0,-1.984 -1.984,0 0,-19.84 1.984,0 0,-1.984 1.984,0 0,-1.984 m 0,3.968 0,7.936 15.872,0 0,-7.936 -15.872,0"
           style="font-size:64px;font-style:normal;font-family:Terminus-ttf;fill:#ffffff;fill-opacity:1"
           id="path3578" />
        <path
           d="m 733.183,155.79836 3.968,0 0,39.68 -19.84,0 0,-1.984 -1.984,0 0,-1.984 -1.984,0 0,-19.84 1.984,0 0,-1.984 1.984,0 0,-1.984 15.872,0 0,-11.904 m -15.872,15.872 0,19.84 15.872,0 0,-19.84 -15.872,0"
           style="font-size:64px;font-style:normal;font-family:Terminus-ttf;fill:#ffffff;fill-opacity:1"
           id="path3580" />
        <path
           d="m 749.311,167.70236 19.84,0 0,33.728 -1.984,0 0,1.984 -1.984,0 0,1.984 -17.856,0 0,-3.968 17.856,0 0,-5.952 -15.872,0 0,-1.984 -1.984,0 0,-1.984 -1.984,0 0,-19.84 1.984,0 0,-1.984 1.984,0 0,-1.984 m 0,3.968 0,19.84 15.872,0 0,-19.84 -15.872,0"
           style="font-size:64px;font-style:normal;font-family:Terminus-ttf;fill:#ffffff;fill-opacity:1"
           id="path3582" />
        <path
           d="m 781.311,167.70236 15.872,0 0,1.984 1.984,0 0,1.984 1.984,0 0,11.904 -19.84,0 0,7.936 15.872,0 0,-1.984 3.968,0 0,1.984 -1.984,0 0,1.984 -1.984,0 0,1.984 -15.872,0 0,-1.984 -1.984,0 0,-1.984 -1.984,0 0,-19.84 1.984,0 0,-1.984 1.984,0 0,-1.984 m 0,3.968 0,7.936 15.872,0 0,-7.936 -15.872,0"
           style="font-size:64px;font-style:normal;font-family:Terminus-ttf;fill:#ffffff;fill-opacity:1"
           id="path3584" />
        <path
           d="m 819.263,187.54236 3.968,0 0,7.936 -3.968,0 0,-7.936"
           style="font-size:64px;font-style:normal;font-family:Terminus-ttf;fill:#ffffff;fill-opacity:1"
           id="path3586" />
        <path
           d="m 405.855,256.83273 12.4,0 0,1.24 1.24,0 0,1.24 1.24,0 0,12.4 -1.24,0 0,1.24 -1.24,0 0,1.24 -9.92,0 0,6.2 -2.48,0 0,-23.56 m 2.48,2.48 0,12.4 9.92,0 0,-12.4 -9.92,0"
           style="font-style:normal;font-family:Terminus-ttf;fill:#ffffff;fill-opacity:1"
           id="path3588" />
        <path
           d="m 425.855,256.83273 2.48,0 0,14.88 9.92,0 0,-14.88 2.48,0 0,17.36 -12.4,0 0,-1.24 -1.24,0 0,-1.24 -1.24,0 0,-14.88"
           style="font-style:normal;font-family:Terminus-ttf;fill:#ffffff;fill-opacity:1"
           id="path3590" />
        <path
           d="m 445.855,256.83273 2.48,0 0,3.72 1.24,0 0,-1.24 1.24,0 0,-1.24 1.24,0 0,-1.24 8.68,0 0,2.48 -8.68,0 0,1.24 -1.24,0 0,1.24 -1.24,0 0,1.24 -1.24,0 0,11.16 -2.48,0 0,-17.36"
           style="font-style:normal;font-family:Terminus-ttf;fill:#ffffff;fill-opacity:1"
           id="path3592" />
        <path
           d="m 478.255,249.39273 2.48,0 0,24.8 -12.4,0 0,-1.24 -1.24,0 0,-1.24 -1.24,0 0,-12.4 1.24,0 0,-1.24 1.24,0 0,-1.24 9.92,0 0,-7.44 m -9.92,9.92 0,12.4 9.92,0 0,-12.4 -9.92,0"
           style="font-style:normal;font-family:Terminus-ttf;fill:#ffffff;fill-opacity:1"
           id="path3594" />
        <path
           d="m 485.855,256.83273 2.48,0 0,14.88 9.92,0 0,-14.88 2.48,0 0,17.36 -12.4,0 0,-1.24 -1.24,0 0,-1.24 -1.24,0 0,-14.88"
           style="font-style:normal;font-family:Terminus-ttf;fill:#ffffff;fill-opacity:1"
           id="path3596" />
        <path
           d="m 508.335,256.83273 9.92,0 0,1.24 1.24,0 0,1.24 1.24,0 0,7.44 -12.4,0 0,4.96 9.92,0 0,-1.24 2.48,0 0,1.24 -1.24,0 0,1.24 -1.24,0 0,1.24 -9.92,0 0,-1.24 -1.24,0 0,-1.24 -1.24,0 0,-12.4 1.24,0 0,-1.24 1.24,0 0,-1.24 m 0,2.48 0,4.96 9.92,0 0,-4.96 -9.92,0"
           style="font-style:normal;font-family:Terminus-ttf;fill:#ffffff;fill-opacity:1"
           id="path3598" />
        <path
           d="m 529.575,249.39273 4.96,0 0,22.32 2.48,0 0,2.48 -7.44,0 0,-2.48 2.48,0 0,-19.84 -2.48,0 0,-2.48"
           style="font-style:normal;font-family:Terminus-ttf;fill:#ffffff;fill-opacity:1"
           id="path3600" />
        <path
           d="m 545.855,256.83273 2.48,0 0,14.88 9.92,0 0,-14.88 2.48,0 0,17.36 -12.4,0 0,-1.24 -1.24,0 0,-1.24 -1.24,0 0,-14.88"
           style="font-style:normal;font-family:Terminus-ttf;fill:#ffffff;fill-opacity:1"
           id="path3602" />
        <path
           d="m 568.335,256.83273 12.4,0 0,21.08 -1.24,0 0,1.24 -1.24,0 0,1.24 -11.16,0 0,-2.48 11.16,0 0,-3.72 -9.92,0 0,-1.24 -1.24,0 0,-1.24 -1.24,0 0,-12.4 1.24,0 0,-1.24 1.24,0 0,-1.24 m 0,2.48 0,12.4 9.92,0 0,-12.4 -9.92,0"
           style="font-style:normal;font-family:Terminus-ttf;fill:#ffffff;fill-opacity:1"
           id="path3604" />
        <path
           d="m 592.055,269.23273 2.48,0 0,4.96 -2.48,0 0,-4.96"
           style="font-style:normal;font-family:Terminus-ttf;fill:#ffffff;fill-opacity:1"
           id="path3606" />
        <path
           d="m 608.335,256.83273 9.92,0 0,1.24 1.24,0 0,1.24 1.24,0 0,12.4 -1.24,0 0,1.24 -1.24,0 0,1.24 -9.92,0 0,-1.24 -1.24,0 0,-1.24 -1.24,0 0,-12.4 1.24,0 0,-1.24 1.24,0 0,-1.24 m 0,2.48 0,12.4 9.92,0 0,-12.4 -9.92,0"
           style="font-style:normal;font-family:Terminus-ttf;fill:#ffffff;fill-opacity:1"
           id="path3608" />
        <path
           d="m 625.855,256.83273 2.48,0 0,3.72 1.24,0 0,-1.24 1.24,0 0,-1.24 1.24,0 0,-1.24 8.68,0 0,2.48 -8.68,0 0,1.24 -1.24,0 0,1.24 -1.24,0 0,1.24 -1.24,0 0,11.16 -2.48,0 0,-17.36"
           style="font-style:normal;font-family:Terminus-ttf;fill:#ffffff;fill-opacity:1"
           id="path3610" />
        <path
           d="m 648.335,256.83273 12.4,0 0,21.08 -1.24,0 0,1.24 -1.24,0 0,1.24 -11.16,0 0,-2.48 11.16,0 0,-3.72 -9.92,0 0,-1.24 -1.24,0 0,-1.24 -1.24,0 0,-12.4 1.24,0 0,-1.24 1.24,0 0,-1.24 m 0,2.48 0,12.4 9.92,0 0,-12.4 -9.92,0"
           style="font-style:normal;font-family:Terminus-ttf;fill:#ffffff;fill-opacity:1"
           id="path3612" />
      </g>
    </g>
  </g>
</svg>
